# Blender 5.1.0
# www.blender.org
mtllib Barrel_Dark_Brown.mtl
o Barrel_Dark_Brown
v -1.498065 2.768546 -1.000000
v -0.790958 2.768546 -0.707107
v -0.498065 2.768546 0.000000
v -0.790958 2.768546 0.707107
v -1.498065 2.768546 1.000000
v -2.205172 2.768546 0.707107
v -2.498065 2.768546 0.000000
v -2.205172 2.768546 -0.707107
v -2.382412 2.076067 0.884347
v -2.418581 1.716085 0.920516
v -2.418581 1.192262 0.920516
v -2.382412 0.832280 0.884347
v -2.748721 2.076067 0.000000
v -2.799871 1.716085 0.000000
v -2.799871 1.192262 0.000000
v -2.748721 0.832280 0.000000
v -1.498065 1.716085 -1.301807
v -1.498065 2.076067 -1.250656
v -2.382412 2.076067 -0.884347
v -2.418581 1.716085 -0.920516
v -1.498065 0.832280 -1.250656
v -1.498065 1.192262 -1.301807
v -2.418581 1.192262 -0.920516
v -2.382412 0.832280 -0.884347
v -1.498065 0.832280 1.250656
v -1.498065 1.192262 1.301807
v -1.498065 1.716085 1.301807
v -1.498065 2.076067 1.250656
v -0.613718 0.832280 0.884347
v -0.577549 1.192262 0.920516
v -0.577549 1.716085 0.920516
v -0.613718 2.076067 0.884347
v -0.247409 0.832280 0.000000
v -0.196259 1.192262 0.000000
v -0.196259 1.716085 0.000000
v -0.247409 2.076067 0.000000
v -0.613718 0.832280 -0.884347
v -0.577549 1.192262 -0.920516
v -0.577549 1.716085 -0.920516
v -0.613718 2.076067 -0.884347
v -0.740326 2.789252 -0.757739
v -1.498065 2.789252 -1.071605
v -0.426460 2.789252 0.000000
v -0.740326 2.789252 0.757739
v -1.498065 2.789252 1.071605
v -2.255804 2.789252 0.757739
v -2.569670 2.789252 0.000000
v -2.255804 2.789252 -0.757739
v -2.284498 2.648922 -0.786433
v -1.498065 2.648922 -1.112184
v -0.711632 2.648922 -0.786433
v -0.385881 2.648922 0.000000
v -0.711632 2.648922 0.786433
v -1.498065 2.648922 1.112184
v -2.284498 2.648922 0.786433
v -2.610249 2.648922 0.000000
v -0.790958 2.718098 -0.707107
v -0.498065 2.718098 0.000000
v -2.205172 2.718098 0.707107
v -2.498065 2.718098 0.000000
v -1.531512 2.718098 -0.986146
v -1.450763 2.718098 -0.980407
v -1.498065 2.754302 -1.000000
v -1.494007 2.701714 -0.990203
v -0.771365 2.718098 0.659805
v -0.824406 2.718098 0.720961
v -0.790958 2.754302 0.707107
v -0.795016 2.701714 0.697310
v -1.464617 2.718098 0.986146
v -1.545367 2.718098 0.980407
v -1.498065 2.754302 1.000000
v -1.502123 2.701714 0.990203
v -2.224765 2.718098 -0.659805
v -2.171724 2.718098 -0.720961
v -2.205172 2.754302 -0.707107
v -2.201114 2.701714 -0.697310
v -1.471938 0.139802 -0.989178
v -1.524192 0.139802 -0.989178
v -1.498065 0.159871 -0.978213
v -0.780136 0.139802 -0.680980
v -0.817085 0.139802 -0.717929
v -0.806364 0.159871 -0.691701
v -0.508887 0.139802 0.026127
v -0.508887 0.139802 -0.026127
v -0.519852 0.159871 0.000000
v -0.817085 0.139802 0.717929
v -0.780136 0.139802 0.680980
v -0.806364 0.159871 0.691701
v -1.524192 0.139802 0.989178
v -1.471938 0.139802 0.989178
v -1.498065 0.159871 0.978213
v -2.215994 0.139802 0.680980
v -2.179045 0.139802 0.717929
v -2.189766 0.159871 0.691701
v -2.487243 0.139802 -0.026127
v -2.487243 0.139802 0.026127
v -2.476278 0.159871 0.000000
v -2.179045 0.139802 -0.717929
v -2.215994 0.139802 -0.680980
v -2.189766 0.159871 -0.691701
v -1.524118 1.199143 -1.242592
v -1.472012 1.199143 -1.242592
v -1.498065 1.195176 -1.281302
v -1.498065 1.202744 -1.227675
v -1.471936 0.839161 -1.191409
v -1.524194 0.839161 -1.191409
v -1.498065 0.835194 -1.230151
v -1.498065 0.848358 -1.177301
v -1.524266 2.069187 -1.191380
v -1.471864 2.069187 -1.191380
v -1.498065 2.073154 -1.230151
v -1.498065 2.059262 -1.177284
v -1.472012 1.709205 -1.242592
v -1.524118 1.709205 -1.242592
v -1.498065 1.713172 -1.281302
v -1.498065 1.704876 -1.227675
v -0.600998 1.709205 -0.860223
v -0.637842 1.709205 -0.897067
v -0.592047 1.713172 -0.906018
v -0.629967 1.704876 -0.868098
v -0.674160 2.069187 -0.860960
v -0.637105 2.069187 -0.823905
v -0.628217 2.073154 -0.869848
v -0.665599 2.059262 -0.832466
v -0.637135 0.839161 -0.823977
v -0.674088 0.839161 -0.860930
v -0.628217 0.835194 -0.869848
v -0.665587 0.848358 -0.832478
v -0.637842 1.199143 -0.897067
v -0.600998 1.199143 -0.860223
v -0.592047 1.195176 -0.906018
v -0.629967 1.202744 -0.868098
v -0.255473 1.709205 0.026053
v -0.255473 1.709205 -0.026053
v -0.216763 1.713172 0.000000
v -0.270390 1.704876 0.000000
v -0.306685 2.069187 -0.026201
v -0.306685 2.069187 0.026201
v -0.267913 2.073154 0.000000
v -0.320781 2.059262 0.000000
v -0.306656 0.839161 0.026130
v -0.306656 0.839161 -0.026130
v -0.267913 0.835194 0.000000
v -0.320764 0.848358 0.000000
v -0.255473 1.199143 -0.026053
v -0.255473 1.199143 0.026053
v -0.216763 1.195176 0.000000
v -0.270390 1.202744 0.000000
v -0.637842 1.709205 0.897067
v -0.600998 1.709205 0.860223
v -0.592047 1.713172 0.906018
v -0.629967 1.704876 0.868098
v -0.637105 2.069187 0.823905
v -0.674160 2.069187 0.860960
v -0.628217 2.073154 0.869848
v -0.665599 2.059262 0.832466
v -0.674088 0.839161 0.860930
v -0.637135 0.839161 0.823977
v -0.628217 0.835194 0.869848
v -0.665587 0.848358 0.832478
v -0.600998 1.199143 0.860223
v -0.637842 1.199143 0.897067
v -0.592047 1.195176 0.906018
v -0.629967 1.202744 0.868098
v -1.524118 1.709205 1.242592
v -1.472012 1.709205 1.242592
v -1.498065 1.713172 1.281302
v -1.498065 1.704876 1.227675
v -1.471864 2.069187 1.191380
v -1.524266 2.069187 1.191380
v -1.498065 2.073154 1.230151
v -1.498065 2.059262 1.177284
v -1.524194 0.839161 1.191409
v -1.471936 0.839161 1.191409
v -1.498065 0.835194 1.230151
v -1.498065 0.848358 1.177301
v -1.472012 1.199143 1.242592
v -1.524118 1.199143 1.242592
v -1.498065 1.195176 1.281302
v -1.498065 1.202744 1.227675
v -2.395132 1.709205 0.860223
v -2.358288 1.709205 0.897067
v -2.404083 1.713172 0.906018
v -2.366163 1.704876 0.868098
v -2.321970 2.069187 0.860960
v -2.359025 2.069187 0.823905
v -2.367913 2.073154 0.869848
v -2.330531 2.059262 0.832466
v -2.358995 0.839161 0.823977
v -2.322042 0.839161 0.860930
v -2.367913 0.835194 0.869848
v -2.330543 0.848358 0.832478
v -2.358288 1.199143 0.897067
v -2.395132 1.199143 0.860223
v -2.404083 1.195176 0.906018
v -2.366163 1.202744 0.868098
v -2.740657 1.709205 -0.026053
v -2.740657 1.709205 0.026053
v -2.779367 1.713172 0.000000
v -2.725740 1.704876 0.000000
v -2.689445 2.069187 0.026201
v -2.689445 2.069187 -0.026201
v -2.728216 2.073154 0.000000
v -2.675349 2.059262 0.000000
v -2.689474 0.839161 -0.026130
v -2.689474 0.839161 0.026130
v -2.728216 0.835194 0.000000
v -2.675366 0.848358 0.000000
v -2.740657 1.199143 0.026053
v -2.740657 1.199143 -0.026053
v -2.779367 1.195176 0.000000
v -2.725740 1.202744 0.000000
v -2.358288 1.709205 -0.897067
v -2.395132 1.709205 -0.860223
v -2.404083 1.713172 -0.906018
v -2.366163 1.704876 -0.868098
v -2.359025 2.069187 -0.823905
v -2.321970 2.069187 -0.860960
v -2.367913 2.073154 -0.869848
v -2.330531 2.059262 -0.832466
v -2.322042 0.839161 -0.860930
v -2.358995 0.839161 -0.823977
v -2.367913 0.835194 -0.869848
v -2.330543 0.848358 -0.832478
v -2.395132 1.199143 -0.860223
v -2.358288 1.199143 -0.897067
v -2.404083 1.195176 -0.906018
v -2.366163 1.202744 -0.868098
v -2.207664 2.628216 -0.746653
v -2.244718 2.628216 -0.709599
v -2.253021 2.636050 -0.754956
v -2.218001 2.609601 -0.719936
v -1.471864 2.628216 -1.029726
v -1.524266 2.628216 -1.029726
v -1.498065 2.636050 -1.067668
v -1.498065 2.609601 -1.018144
v -0.751412 2.628216 -0.709599
v -0.788466 2.628216 -0.746653
v -0.743109 2.636050 -0.754956
v -0.778129 2.609601 -0.719936
v -0.468339 2.628216 0.026201
v -0.468339 2.628216 -0.026201
v -0.430397 2.636050 0.000000
v -0.479921 2.609601 0.000000
v -0.788466 2.628216 0.746653
v -0.751412 2.628216 0.709599
v -0.743109 2.636050 0.754956
v -0.778129 2.609601 0.719936
v -1.524266 2.628216 1.029726
v -1.471864 2.628216 1.029726
v -1.498065 2.636050 1.067668
v -1.498065 2.609601 1.018144
v -2.244718 2.628216 0.709599
v -2.207664 2.628216 0.746653
v -2.253021 2.636050 0.754956
v -2.218001 2.609601 0.719936
v -2.527791 2.628216 -0.026201
v -2.527791 2.628216 0.026201
v -2.565733 2.636050 0.000000
v -2.516209 2.609601 0.000000
v -1.524189 -0.000054 -0.989179
v -1.471941 -0.000054 -0.989179
v -1.498065 -0.000054 -0.993661
v -0.817082 -0.000054 -0.717928
v -0.780137 -0.000054 -0.680983
v -0.795440 -0.000054 -0.702625
v -0.508886 -0.000054 -0.026124
v -0.508886 -0.000054 0.026124
v -0.504404 -0.000054 0.000000
v -0.780137 -0.000054 0.680983
v -0.817082 -0.000054 0.717928
v -0.795440 -0.000054 0.702625
v -1.471941 -0.000054 0.989179
v -1.524189 -0.000054 0.989179
v -1.498065 -0.000054 0.993661
v -2.179048 -0.000054 0.717928
v -2.215993 -0.000054 0.680983
v -2.200690 -0.000054 0.702625
v -2.487244 -0.000054 0.026124
v -2.487244 -0.000054 -0.026124
v -2.491726 -0.000054 0.000000
v -2.215993 -0.000054 -0.680983
v -2.179048 -0.000054 -0.717928
v -2.200690 -0.000054 -0.702625
vn 0.3794 -0.1302 -0.9160
vn 0.9160 -0.1302 -0.3794
vn 0.9160 -0.1302 0.3794
vn 0.3794 -0.1302 0.9160
vn -0.3794 -0.1302 0.9160
vn -0.9160 0.1302 -0.3794
vn -0.9160 -0.1302 -0.3794
vn -0.3794 0.1302 -0.9160
vn -0.3794 -0.1302 -0.9160
vn 0.3794 0.1302 -0.9160
vn 0.9160 0.1302 -0.3794
vn 0.9160 0.1302 0.3794
vn 0.3794 0.1302 0.9160
vn -0.3794 0.1302 0.9160
vn -0.9160 0.1302 0.3794
vn -0.9160 -0.1302 0.3794
vn 0.2760 0.9543 0.1143
vn -0.2760 0.9543 0.1143
vn -0.1143 0.9543 -0.2760
vn 0.2760 0.9543 -0.1143
vn -0.3697 0.2581 -0.8926
vn 0.3697 0.2581 -0.8926
vn 0.8926 0.2581 -0.3697
vn 0.8926 0.2581 0.3697
vn 0.3697 0.2581 0.8926
vn -0.3697 0.2581 0.8926
vn -0.8926 0.2581 0.3697
vn -0.8926 0.2581 -0.3697
vn 0.1143 0.9543 -0.2760
vn -0.2760 0.9543 -0.1143
vn 0.1143 0.9543 0.2760
vn -0.1143 0.9543 0.2760
vn 0.9239 -0.0000 -0.3827
vn -0.9239 -0.0000 0.3827
vn 0.1889 0.1939 0.9627
vn -0.2740 0.1557 0.9491
vn -0.8648 0.1557 -0.4774
vn -0.5472 0.1939 -0.8143
vn -0.1889 0.1939 -0.9627
vn 0.2740 0.1557 -0.9491
vn 0.8648 0.1557 0.4774
vn 0.5472 0.1939 0.8143
vn 0.3809 0.9110 -0.1578
vn -0.3809 0.9110 0.1578
vn -0.0000 1.0000 -0.0000
vn -0.3827 -0.0000 0.9239
vn 0.3827 -0.0000 0.9239
vn -0.3827 -0.0000 -0.9239
vn -0.9239 -0.0000 -0.3827
vn 0.3827 -0.0000 -0.9239
vn 0.9239 -0.0000 0.3827
vn -0.0568 0.9886 -0.1395
vn 0.0568 0.9886 -0.1395
vn -0.2065 -0.9494 0.2365
vn 0.2065 -0.9494 0.2365
vn 0.2238 0.9426 0.2477
vn -0.2238 0.9426 0.2477
vn 0.0764 -0.9854 -0.1524
vn -0.0764 -0.9854 -0.1524
vn 0.1618 -0.9854 -0.0537
vn 0.0537 -0.9854 -0.1618
vn -0.0169 0.9426 0.3334
vn -0.3334 0.9426 0.0169
vn -0.3132 -0.9494 0.0212
vn -0.0212 -0.9494 0.3132
vn 0.0585 0.9886 -0.1388
vn 0.1388 0.9886 -0.0585
vn 0.1524 -0.9854 0.0764
vn 0.1524 -0.9854 -0.0764
vn -0.2477 0.9426 0.2238
vn -0.2477 0.9426 -0.2238
vn -0.2365 -0.9494 -0.2065
vn -0.2365 -0.9494 0.2065
vn 0.1395 0.9886 -0.0568
vn 0.1395 0.9886 0.0568
vn 0.0537 -0.9854 0.1618
vn 0.1618 -0.9854 0.0537
vn -0.3334 0.9426 -0.0169
vn -0.0169 0.9426 -0.3334
vn -0.0212 -0.9494 -0.3132
vn -0.3132 -0.9494 -0.0212
vn 0.1388 0.9886 0.0585
vn 0.0585 0.9886 0.1388
vn -0.0764 -0.9854 0.1524
vn 0.0764 -0.9854 0.1524
vn -0.2238 0.9426 -0.2477
vn 0.2238 0.9426 -0.2477
vn 0.2065 -0.9494 -0.2365
vn -0.2065 -0.9494 -0.2365
vn 0.0568 0.9886 0.1395
vn -0.0568 0.9886 0.1395
vn -0.1618 -0.9854 0.0537
vn -0.0537 -0.9854 0.1618
vn 0.0169 0.9426 -0.3334
vn 0.3334 0.9426 -0.0169
vn 0.3132 -0.9494 -0.0212
vn 0.0212 -0.9494 -0.3132
vn -0.0585 0.9886 0.1388
vn -0.1388 0.9886 0.0585
vn -0.1524 -0.9854 -0.0764
vn -0.1524 -0.9854 0.0764
vn 0.2477 0.9426 -0.2238
vn 0.2477 0.9426 0.2238
vn 0.2365 -0.9494 0.2065
vn 0.2365 -0.9494 -0.2065
vn -0.1395 0.9886 0.0568
vn -0.1395 0.9886 -0.0568
vn -0.0537 -0.9854 -0.1618
vn -0.1618 -0.9854 -0.0537
vn 0.3334 0.9426 0.0169
vn 0.0169 0.9426 0.3334
vn 0.0212 -0.9494 0.3132
vn 0.3132 -0.9494 0.0212
vn -0.1388 0.9886 -0.0585
vn -0.0585 0.9886 -0.1388
vn -0.0343 -0.8137 -0.5802
vn -0.5802 -0.8137 -0.0343
vn 0.3860 -0.8137 -0.4346
vn -0.3860 -0.8137 -0.4346
vn 0.5802 -0.8137 -0.0343
vn 0.0343 -0.8137 -0.5802
vn 0.4346 -0.8137 0.3860
vn 0.4346 -0.8137 -0.3860
vn 0.0343 -0.8137 0.5802
vn 0.5802 -0.8137 0.0343
vn -0.3860 -0.8137 0.4346
vn 0.3860 -0.8137 0.4346
vn -0.5802 -0.8137 0.0343
vn -0.0343 -0.8137 0.5802
vn -0.4346 -0.8137 -0.3860
vn -0.4346 -0.8137 0.3860
vn 0.5248 -0.2365 -0.8177
vn -0.5248 -0.2365 -0.8177
vn 0.2072 -0.2365 -0.9493
vn 0.9493 -0.2365 -0.2072
vn -0.2072 -0.2365 -0.9493
vn -0.9493 -0.2365 -0.2072
vn 0.4969 -0.0000 -0.8678
vn -0.4969 -0.0000 -0.8678
vn 0.2623 -0.0000 -0.9650
vn 0.9650 -0.0000 -0.2623
vn -0.2623 -0.0000 -0.9650
vn -0.9650 -0.0000 -0.2623
vn -0.5282 0.2359 -0.8157
vn 0.5282 0.2359 -0.8157
vn 0.2033 0.2359 -0.9503
vn 0.9503 0.2359 -0.2033
vn 0.8157 0.2359 -0.5282
vn 0.8157 0.2359 0.5282
vn 0.8678 -0.0000 -0.4969
vn 0.8678 -0.0000 0.4969
vn 0.8177 -0.2365 -0.5248
vn 0.8177 -0.2365 0.5248
vn 0.9503 0.2359 0.2033
vn 0.2033 0.2359 0.9503
vn 0.9650 -0.0000 0.2623
vn 0.2623 -0.0000 0.9650
vn 0.9493 -0.2365 0.2072
vn 0.2072 -0.2365 0.9493
vn 0.5282 0.2359 0.8157
vn -0.5282 0.2359 0.8157
vn 0.4969 -0.0000 0.8678
vn -0.4969 -0.0000 0.8678
vn 0.5248 -0.2365 0.8177
vn -0.5248 -0.2365 0.8177
vn -0.2033 0.2359 0.9503
vn -0.9503 0.2359 0.2033
vn -0.2623 -0.0000 0.9650
vn -0.9650 -0.0000 0.2623
vn -0.2072 -0.2365 0.9493
vn -0.9493 -0.2365 0.2072
vn -0.8157 0.2359 0.5282
vn -0.8157 0.2359 -0.5282
vn -0.8678 -0.0000 0.4969
vn -0.8678 -0.0000 -0.4969
vn -0.8177 -0.2365 0.5248
vn -0.8177 -0.2365 -0.5248
vn -0.2033 0.2359 -0.9503
vn -0.9503 0.2359 -0.2033
vn 0.9933 0.0512 -0.1036
vn 0.9933 0.0512 0.1036
vn 0.7756 0.0512 -0.6291
vn 0.6291 0.0512 -0.7756
vn -0.6291 0.0512 0.7756
vn -0.7756 0.0512 0.6291
vn -0.1036 0.0512 0.9933
vn 0.1036 0.0512 0.9933
vn -0.1036 0.0512 -0.9933
vn 0.1036 0.0512 -0.9933
vn -0.6291 0.0512 -0.7756
vn -0.7756 0.0512 -0.6291
vn 0.7756 0.0512 0.6291
vn 0.6291 0.0512 0.7756
vn -0.9933 0.0512 0.1036
vn -0.9933 0.0512 -0.1036
vn -0.3697 -0.2581 -0.8926
vn 0.3697 -0.2581 -0.8926
vn 0.8926 -0.2581 -0.3697
vn 0.8926 -0.2581 0.3697
vn 0.3697 -0.2581 0.8926
vn -0.3697 -0.2581 0.8926
vn -0.8926 -0.2581 0.3697
vn -0.8926 -0.2581 -0.3697
vn -0.0582 0.9884 -0.1404
vn 0.0582 0.9884 -0.1404
vn -0.0582 -0.9884 0.1404
vn 0.0582 -0.9884 0.1404
vn -0.0582 0.9884 0.1404
vn 0.0582 0.9884 0.1404
vn 0.0582 -0.9884 -0.1404
vn -0.0582 -0.9884 -0.1404
vn 0.1404 -0.9884 -0.0582
vn -0.1404 0.9884 0.0582
vn -0.1404 -0.9884 0.0582
vn 0.1404 0.9884 -0.0582
vn 0.1404 -0.9884 0.0582
vn -0.1404 0.9884 -0.0582
vn -0.1404 -0.9884 -0.0582
vn 0.1404 0.9884 0.0582
vn -0.1143 -0.9543 -0.2760
vn -0.2760 -0.9543 -0.1143
vn 0.1143 -0.9543 -0.2760
vn 0.2760 -0.9543 -0.1143
vn 0.2760 -0.9543 0.1143
vn 0.1143 -0.9543 0.2760
vn -0.1143 -0.9543 0.2760
vn -0.2760 -0.9543 0.1143
vn -0.0000 -1.0000 -0.0000
vt 1.000000 0.701492
vt 0.875000 0.701492
vt 0.875000 0.633021
vt 1.000000 0.633021
vt 0.750000 0.701492
vt 0.750000 0.633021
vt 0.625000 0.701492
vt 0.625000 0.633021
vt 0.500000 0.701492
vt 0.500000 0.633021
vt 0.375000 0.701492
vt 0.375000 0.633021
vt 0.250000 0.866979
vt 0.125000 0.866979
vt 0.125000 0.798508
vt 0.250000 0.798508
vt 0.250000 0.701492
vt 0.125000 0.701492
vt 0.125000 0.633021
vt 0.250000 0.633021
vt 0.000000 0.866979
vt 0.000000 0.798508
vt 0.000000 0.701492
vt 0.000000 0.633021
vt 1.000000 0.866979
vt 0.875000 0.866979
vt 0.875000 0.798508
vt 1.000000 0.798508
vt 0.750000 0.866979
vt 0.750000 0.798508
vt 0.625000 0.866979
vt 0.625000 0.798508
vt 0.500000 0.866979
vt 0.500000 0.798508
vt 0.375000 0.866979
vt 0.375000 0.798508
vt 0.010000 0.250000
vt 0.080294 0.419706
vt 0.419706 0.419706
vt 0.490000 0.250000
vt 0.419706 0.080294
vt 0.250000 0.010000
vt 0.080294 0.080294
vt 0.125000 0.973309
vt 0.125000 1.000000
vt 0.000000 1.000000
vt 0.000000 0.973309
vt 1.000000 0.973309
vt 1.000000 1.000000
vt 0.875000 1.000000
vt 0.875000 0.973309
vt 0.750000 1.000000
vt 0.750000 0.973309
vt 0.625000 1.000000
vt 0.625000 0.973309
vt 0.500000 1.000000
vt 0.500000 0.973309
vt 0.375000 1.000000
vt 0.375000 0.973309
vt 0.250000 1.000000
vt 0.250000 0.973309
vt 0.250000 0.490000
vt 0.241973 0.486675
vt 0.250974 0.487649
vt 0.261352 0.485298
vt 0.424408 0.091647
vt 0.418732 0.082646
vt 0.411678 0.076969
vt 0.258027 0.013325
vt 0.249026 0.012351
vt 0.238648 0.014702
vt 0.075592 0.408353
vt 0.081268 0.417354
vt 0.088322 0.423031
vt 0.238648 0.014702
vt 0.249026 0.012351
vt 0.081268 0.417354
vt 0.088322 0.423031
vt 0.411678 0.076969
vt 0.418732 0.082646
vt 0.250974 0.487649
vt 0.261352 0.485298
vt 0.003674 0.701492
vt 0.000315 0.701492
vt 0.000330 0.633021
vt 0.000000 0.633021
vt 0.003842 0.633021
vt 0.003853 0.866979
vt 0.000331 0.866979
vt 0.000315 0.798508
vt 0.003674 0.798508
vt 0.871326 0.798508
vt 0.874685 0.798508
vt 0.877598 0.798508
vt 0.878853 0.866979
vt 0.875315 0.867257
vt 0.871949 0.867930
vt 0.871158 0.633021
vt 0.874685 0.632744
vt 0.875000 0.633021
vt 0.878084 0.632073
vt 0.878675 0.701492
vt 0.875315 0.701492
vt 0.872402 0.701492
vt 0.746326 0.798508
vt 0.749685 0.798508
vt 0.752598 0.798508
vt 0.753853 0.866979
vt 0.750315 0.867257
vt 0.746949 0.867930
vt 0.746158 0.633021
vt 0.749685 0.632744
vt 0.753084 0.632073
vt 0.753675 0.701492
vt 0.750315 0.701492
vt 0.747402 0.701492
vt 0.621325 0.798508
vt 0.624685 0.798508
vt 0.627598 0.798508
vt 0.628853 0.866979
vt 0.625315 0.867257
vt 0.621949 0.867930
vt 0.621158 0.633021
vt 0.624685 0.632744
vt 0.628084 0.632073
vt 0.628675 0.701492
vt 0.625315 0.701492
vt 0.622402 0.701492
vt 0.496325 0.798508
vt 0.499685 0.798508
vt 0.502598 0.798508
vt 0.503853 0.866979
vt 0.500315 0.867257
vt 0.496949 0.867930
vt 0.496158 0.633021
vt 0.499685 0.632744
vt 0.503084 0.632073
vt 0.503675 0.701492
vt 0.500315 0.701492
vt 0.497402 0.701492
vt 0.371325 0.798508
vt 0.374685 0.798508
vt 0.377598 0.798508
vt 0.378853 0.866979
vt 0.375315 0.867257
vt 0.371949 0.867930
vt 0.371158 0.633021
vt 0.374685 0.632744
vt 0.378084 0.632073
vt 0.378674 0.701492
vt 0.375315 0.701492
vt 0.372402 0.701492
vt 0.246326 0.798508
vt 0.249685 0.798508
vt 0.252598 0.798508
vt 0.253853 0.866979
vt 0.250315 0.867257
vt 0.246949 0.867930
vt 0.246158 0.633021
vt 0.249685 0.632744
vt 0.253084 0.632073
vt 0.253675 0.701492
vt 0.250315 0.701492
vt 0.247402 0.701492
vt 0.121326 0.798508
vt 0.124685 0.798508
vt 0.127598 0.798508
vt 0.128853 0.866979
vt 0.125315 0.867257
vt 0.121949 0.867930
vt 0.121158 0.633021
vt 0.124685 0.632744
vt 0.125000 0.633021
vt 0.128084 0.632073
vt 0.128674 0.701492
vt 0.125315 0.701492
vt 0.122402 0.701492
vt 0.120549 0.973309
vt 0.124627 0.973587
vt 0.125000 0.973309
vt 0.127878 0.974260
vt 0.000382 0.973309
vt 0.004451 0.973309
vt 0.870549 0.973309
vt 0.874627 0.973587
vt 0.875000 0.973309
vt 0.877878 0.974260
vt 0.745549 0.973309
vt 0.749627 0.973587
vt 0.750000 0.973309
vt 0.752878 0.974260
vt 0.620549 0.973309
vt 0.624627 0.973587
vt 0.625000 0.973309
vt 0.627878 0.974260
vt 0.495549 0.973309
vt 0.499627 0.973587
vt 0.500000 0.973309
vt 0.502878 0.974260
vt 0.370549 0.973309
vt 0.374627 0.973587
vt 0.375000 0.973309
vt 0.377878 0.974260
vt 0.245549 0.973309
vt 0.249627 0.973587
vt 0.250000 0.973309
vt 0.252878 0.974260
vt 0.004619 0.500000
vt 0.003842 0.633021
vt 0.000000 0.632700
vt 0.000000 0.500000
vt 1.000000 0.500000
vt 1.000000 0.632700
vt 0.996158 0.633021
vt 0.995381 0.500000
vt 0.870381 0.500000
vt 0.875000 0.500000
vt 0.875000 0.632700
vt 0.879619 0.500000
vt 0.878842 0.633021
vt 0.129619 0.500000
vt 0.128842 0.633021
vt 0.125000 0.632700
vt 0.125000 0.500000
vt 0.120381 0.500000
vt 0.003674 0.798508
vt 0.996325 0.798508
vt 0.996325 0.701492
vt 0.871326 0.701492
vt 0.878675 0.798508
vt 0.128674 0.798508
vt 0.121326 0.701492
vt 0.995549 0.973309
vt 0.996147 0.866979
vt 1.000000 0.867301
vt 0.000000 0.867301
vt 0.004451 0.973309
vt 0.871147 0.866979
vt 0.875000 0.867301
vt 0.879451 0.973309
vt 0.746147 0.866979
vt 0.750000 0.867301
vt 0.754451 0.973309
vt 0.746325 0.701492
vt 0.753674 0.798508
vt 0.745381 0.500000
vt 0.750000 0.500000
vt 0.750000 0.632700
vt 0.754619 0.500000
vt 0.753842 0.633021
vt 0.621147 0.866979
vt 0.625000 0.867301
vt 0.629451 0.973309
vt 0.621325 0.701492
vt 0.628675 0.798508
vt 0.620381 0.500000
vt 0.625000 0.500000
vt 0.625000 0.632700
vt 0.629619 0.500000
vt 0.628842 0.633021
vt 0.496147 0.866979
vt 0.500000 0.867301
vt 0.504451 0.973309
vt 0.496326 0.701492
vt 0.503675 0.798508
vt 0.495381 0.500000
vt 0.500000 0.500000
vt 0.500000 0.632700
vt 0.504619 0.500000
vt 0.503842 0.633021
vt 0.371147 0.866979
vt 0.375000 0.867301
vt 0.379451 0.973309
vt 0.371325 0.701492
vt 0.378674 0.798508
vt 0.370381 0.500000
vt 0.375000 0.500000
vt 0.375000 0.632700
vt 0.379619 0.500000
vt 0.378842 0.633021
vt 0.246147 0.866979
vt 0.250000 0.867301
vt 0.254451 0.973309
vt 0.246326 0.701492
vt 0.253674 0.798508
vt 0.245381 0.500000
vt 0.250000 0.500000
vt 0.250000 0.632700
vt 0.254619 0.500000
vt 0.253842 0.633021
vt 0.129451 0.973309
vt 0.125000 0.867301
vt 0.121147 0.866979
vt 0.745382 0.500000
vt 0.754618 0.500000
vt 0.879618 0.500000
vt 0.870382 0.500000
vt 0.370382 0.500000
vt 0.379618 0.500000
vt 0.504618 0.500000
vt 0.495382 0.500000
vt 0.995382 0.500000
vt 0.004618 0.500000
vt 0.129618 0.500000
vt 0.120382 0.500000
vt 0.620382 0.500000
vt 0.629618 0.500000
vt 0.245382 0.500000
vt 0.254618 0.500000
vt 1.000000 0.973309
vt 0.743730 0.487403
vt 0.750000 0.488479
vt 0.756270 0.487403
vt 0.913436 0.422303
vt 0.918630 0.418630
vt 0.922303 0.413436
vt 0.987403 0.256270
vt 0.988479 0.250000
vt 0.987403 0.243730
vt 0.922303 0.086564
vt 0.918630 0.081370
vt 0.913436 0.077697
vt 0.756270 0.012597
vt 0.750000 0.011521
vt 0.743730 0.012597
vt 0.586564 0.077697
vt 0.581370 0.081370
vt 0.577697 0.086564
vt 0.512597 0.243730
vt 0.511521 0.250000
vt 0.512597 0.256270
vt 0.577697 0.413436
vt 0.581370 0.418630
vt 0.586564 0.422303
s 0
usemtl Black_Metal
f 22/1/1 38/2/1 37/3/1 21/4/1
f 38/2/2 34/5/2 33/6/2 37/3/2
f 34/5/3 30/7/3 29/8/3 33/6/3
f 30/7/4 26/9/4 25/10/4 29/8/4
f 26/9/5 11/11/5 12/12/5 25/10/5
f 13/13/6 19/14/6 20/15/6 14/16/6
f 15/17/7 23/18/7 24/19/7 16/20/7
f 19/14/8 18/21/8 17/22/8 20/15/8
f 23/18/9 22/23/9 21/24/9 24/19/9
f 18/25/10 40/26/10 39/27/10 17/28/10
f 40/26/11 36/29/11 35/30/11 39/27/11
f 36/29/12 32/31/12 31/32/12 35/30/12
f 32/31/13 28/33/13 27/34/13 31/32/13
f 28/33/14 9/35/14 10/36/14 27/34/14
f 9/35/15 13/13/15 14/16/15 10/36/15
f 11/11/16 15/17/16 16/20/16 12/12/16
f 101/83/52 104/84/52 103/23/52
f 104/84/53 102/23/53 103/23/53
f 105/24/54 108/85/54 107/86/54
f 108/85/55 106/87/55 107/86/55
f 109/88/56 112/89/56 111/21/56
f 112/89/57 110/21/57 111/21/57
f 113/22/58 116/90/58 115/22/58
f 116/90/59 114/91/59 115/22/59
f 117/92/60 120/93/60 119/27/60
f 120/93/61 118/94/61 119/27/61
f 121/95/62 124/96/62 123/26/62
f 124/96/63 122/97/63 123/26/63
f 125/98/64 128/99/64 127/100/64
f 128/99/65 126/101/65 127/3/65
f 129/102/66 132/103/66 131/2/66
f 132/103/67 130/104/67 131/2/67
f 133/105/68 136/106/68 135/30/68
f 136/106/69 134/107/69 135/30/69
f 137/108/70 140/109/70 139/29/70
f 140/109/71 138/110/71 139/29/71
f 141/111/72 144/112/72 143/6/72
f 144/112/73 142/113/73 143/6/73
f 145/114/74 148/115/74 147/5/74
f 148/115/75 146/116/75 147/5/75
f 149/117/76 152/118/76 151/32/76
f 152/118/77 150/119/77 151/32/77
f 153/120/78 156/121/78 155/31/78
f 156/121/79 154/122/79 155/31/79
f 157/123/80 160/124/80 159/8/80
f 160/124/81 158/125/81 159/8/81
f 161/126/82 164/127/82 163/7/82
f 164/127/83 162/128/83 163/7/83
f 165/129/84 168/130/84 167/34/84
f 168/130/85 166/131/85 167/34/85
f 169/132/86 172/133/86 171/33/86
f 172/133/87 170/134/87 171/33/87
f 173/135/88 176/136/88 175/10/88
f 176/136/89 174/137/89 175/10/89
f 177/138/90 180/139/90 179/9/90
f 180/139/91 178/140/91 179/9/91
f 181/141/92 184/142/92 183/36/92
f 184/142/93 182/143/93 183/36/93
f 185/144/94 188/145/94 187/35/94
f 188/145/95 186/146/95 187/35/95
f 189/147/96 192/148/96 191/12/96
f 192/148/97 190/149/97 191/12/97
f 193/150/98 196/151/98 195/11/98
f 196/151/99 194/152/99 195/11/99
f 197/153/100 200/154/100 199/16/100
f 200/154/101 198/155/101 199/16/101
f 201/156/102 204/157/102 203/13/102
f 204/157/103 202/158/103 203/13/103
f 205/159/104 208/160/104 207/20/104
f 208/160/105 206/161/105 207/20/105
f 209/162/106 212/163/106 211/17/106
f 212/163/107 210/164/107 211/17/107
f 213/165/108 216/166/108 215/15/108
f 216/166/109 214/167/109 215/15/109
f 217/168/110 220/169/110 219/14/110
f 220/169/111 218/170/111 219/14/111
f 221/171/112 224/172/112 223/173/112
f 224/172/113 222/174/113 223/19/113
f 225/175/114 228/176/114 227/18/114
f 228/176/115 226/177/115 227/18/115
f 227/18/204 226/232/204 101/83/204 103/23/204 22/23/204 23/18/204
f 103/1/205 102/228/205 129/102/205 131/2/205 38/2/205 22/1/205
f 127/100/206 126/220/206 105/214/206 107/4/206 21/4/206 37/3/206
f 107/86/207 106/209/207 221/171/207 223/173/207 24/19/207 21/24/207
f 111/25/208 110/234/208 121/95/208 123/26/208 40/26/208 18/25/208
f 219/14/209 218/293/209 109/88/209 111/21/209 18/21/209 19/14/209
f 119/27/210 118/230/210 113/227/210 115/28/210 17/28/210 39/27/210
f 115/22/211 114/226/211 213/165/211 215/15/211 20/15/211 17/22/211
f 135/30/212 134/245/212 117/92/212 119/27/212 39/27/212 35/30/212
f 123/26/213 122/238/213 137/108/213 139/29/213 36/29/213 40/26/213
f 143/6/214 142/250/214 125/98/214 127/100/214 37/3/214 33/6/214
f 131/2/215 130/229/215 145/114/215 147/5/215 34/5/215 38/2/215
f 151/32/216 150/255/216 133/105/216 135/30/216 35/30/216 31/32/216
f 139/29/217 138/241/217 153/120/217 155/31/217 32/31/217 36/29/217
f 159/8/218 158/260/218 141/111/218 143/6/218 33/6/218 29/8/218
f 147/5/219 146/244/219 161/126/219 163/7/219 30/7/219 34/5/219
f 167/34/207 166/265/207 149/117/207 151/32/207 31/32/207 27/34/207
f 155/31/204 154/251/204 169/132/204 171/33/204 28/33/204 32/31/204
f 175/10/211 174/270/211 157/123/211 159/8/211 29/8/211 25/10/211
f 163/7/209 162/254/209 177/138/209 179/9/209 26/9/209 30/7/209
f 183/36/206 182/275/206 165/129/206 167/34/206 27/34/206 10/36/206
f 171/33/205 170/261/205 185/144/205 187/35/205 9/35/205 28/33/205
f 191/12/210 190/280/210 173/135/210 175/10/210 25/10/210 12/12/210
f 179/9/208 178/264/208 193/150/208 195/11/208 11/11/208 26/9/208
f 199/16/214 198/285/214 181/141/214 183/36/214 10/36/214 14/16/214
f 187/35/215 186/271/215 201/156/215 203/13/215 13/13/215 9/35/215
f 207/20/212 206/290/212 189/147/212 191/12/212 12/12/212 16/20/212
f 195/11/213 194/274/213 209/162/213 211/17/213 15/17/213 11/11/213
f 215/15/218 214/231/218 197/153/218 199/16/218 14/16/218 20/15/218
f 203/13/219 202/281/219 217/168/219 219/14/219 19/14/219 13/13/219
f 223/173/216 222/222/216 205/159/216 207/20/216 16/20/216 24/19/216
f 211/17/217 210/284/217 225/175/217 227/18/217 23/18/217 15/17/217
usemtl Dark_Brown_Wood
f 7/37/17 8/38/17 48/38/17 47/37/17
f 2/39/18 3/40/18 43/40/18 41/39/18
f 4/41/19 5/42/19 45/42/19 44/41/19
f 6/43/20 7/37/20 47/37/20 46/43/20
f 49/44/21 48/45/21 42/46/21 50/47/21
f 50/48/22 42/49/22 41/50/22 51/51/22
f 51/51/23 41/50/23 43/52/23 52/53/23
f 52/53/24 43/52/24 44/54/24 53/55/24
f 53/55/25 44/54/25 45/56/25 54/57/25
f 54/57/26 45/56/26 46/58/26 55/59/26
f 55/59/27 46/58/27 47/60/27 56/61/27
f 56/61/28 47/60/28 48/45/28 49/44/28
f 5/42/29 6/43/29 46/43/29 45/42/29
f 3/40/30 4/41/30 44/41/30 43/40/30
f 8/38/31 1/62/31 42/62/31 48/38/31
f 1/62/32 2/39/32 41/39/32 42/62/32
f 7/37/33 6/43/33 59/43/33 60/37/33
f 3/40/34 2/39/34 57/39/34 58/40/34
f 61/63/35 64/64/35 63/62/35
f 64/64/36 62/65/36 63/62/36
f 65/66/37 68/67/37 67/41/37
f 68/67/38 66/68/38 67/41/38
f 69/69/39 72/70/39 71/42/39
f 72/70/40 70/71/40 71/42/40
f 73/72/41 76/73/41 75/38/41
f 76/73/42 74/74/42 75/38/42
f 73/72/43 70/75/43 72/76/43 76/77/43
f 76/77/44 72/76/44 69/69/44 74/78/44
f 61/63/43 66/79/43 68/80/43 64/81/43
f 64/81/44 68/80/44 65/66/44 62/82/44
f 57/39/45 62/82/45 65/66/45 58/40/45
f 2/39/46 1/62/46 63/62/46 62/82/46 57/39/46
f 61/63/45 74/78/45 69/69/45 66/79/45
f 1/62/47 8/38/47 75/38/47 74/78/47 61/63/47 63/62/47
f 5/42/48 4/41/48 67/41/48 66/79/48 69/69/48 71/42/48
f 4/41/49 3/40/49 58/40/49 65/66/49 67/41/49
f 6/43/50 5/42/50 71/42/50 70/75/50 59/43/50
f 70/75/45 73/72/45 60/37/45 59/43/45
f 8/38/51 7/37/51 60/37/51 73/72/51 75/38/51
f 229/178/116 232/179/116 231/180/116
f 232/179/117 230/181/117 231/44/117
f 233/47/118 236/182/118 235/47/118
f 236/182/119 234/183/119 235/47/119
f 237/184/120 240/185/120 239/186/120
f 240/185/121 238/187/121 239/51/121
f 241/188/122 244/189/122 243/190/122
f 244/189/123 242/191/123 243/53/123
f 245/192/124 248/193/124 247/194/124
f 248/193/125 246/195/125 247/55/125
f 249/196/126 252/197/126 251/198/126
f 252/197/127 250/199/127 251/57/127
f 253/200/128 256/201/128 255/202/128
f 256/201/129 254/203/129 255/59/129
f 257/204/130 260/205/130 259/206/130
f 260/205/131 258/207/131 259/61/131
f 78/208/132 106/209/132 108/210/132 79/211/132
f 79/212/133 108/213/133 105/214/133 77/215/133
f 125/98/134 80/216/134 82/217/134 128/218/134
f 128/218/135 82/217/135 81/219/135 126/220/135
f 99/221/136 222/222/136 224/223/136 100/224/136
f 100/224/137 224/223/137 221/171/137 98/225/137
f 101/83/138 114/226/138 116/22/138 104/23/138
f 104/1/139 116/28/139 113/227/139 102/228/139
f 117/92/140 130/229/140 132/2/140 120/27/140
f 120/27/141 132/2/141 129/102/141 118/230/141
f 225/175/142 214/231/142 216/15/142 228/18/142
f 228/18/143 216/15/143 213/165/143 226/232/143
f 233/233/144 110/234/144 112/235/144 236/48/144
f 236/47/145 112/236/145 109/88/145 234/237/145
f 237/184/146 122/238/146 124/239/146 240/51/146
f 240/51/147 124/239/147 121/95/147 238/240/147
f 241/188/148 138/241/148 140/242/148 244/53/148
f 244/53/149 140/242/149 137/108/149 242/243/149
f 133/105/150 146/244/150 148/5/150 136/30/150
f 136/30/151 148/5/151 145/114/151 134/245/151
f 141/111/152 83/246/152 85/247/152 144/248/152
f 144/248/153 85/247/153 84/249/153 142/250/153
f 245/192/154 154/251/154 156/252/154 248/55/154
f 248/55/155 156/252/155 153/120/155 246/253/155
f 149/117/156 162/254/156 164/7/156 152/32/156
f 152/32/157 164/7/157 161/126/157 150/255/157
f 157/123/158 86/256/158 88/257/158 160/258/158
f 160/258/159 88/257/159 87/259/159 158/260/159
f 249/196/160 170/261/160 172/262/160 252/57/160
f 252/57/161 172/262/161 169/132/161 250/263/161
f 165/129/162 178/264/162 180/9/162 168/34/162
f 168/34/163 180/9/163 177/138/163 166/265/163
f 173/135/164 89/266/164 91/267/164 176/268/164
f 176/268/165 91/267/165 90/269/165 174/270/165
f 253/200/166 186/271/166 188/272/166 256/59/166
f 256/59/167 188/272/167 185/144/167 254/273/167
f 181/141/168 194/274/168 196/11/168 184/36/168
f 184/36/169 196/11/169 193/150/169 182/275/169
f 189/147/170 92/276/170 94/277/170 192/278/170
f 192/278/171 94/277/171 93/279/171 190/280/171
f 257/204/172 202/281/172 204/282/172 260/61/172
f 260/61/173 204/282/173 201/156/173 258/283/173
f 197/153/174 210/284/174 212/17/174 200/16/174
f 200/16/175 212/17/175 209/162/175 198/285/175
f 205/159/176 95/286/176 97/287/176 208/288/176
f 208/288/177 97/287/177 96/289/177 206/290/177
f 217/168/178 230/291/178 232/44/178 220/292/178
f 220/292/179 232/44/179 229/178/179 218/293/179
f 83/246/180 268/294/180 269/247/180 85/247/180
f 85/247/181 269/247/181 267/295/181 84/249/181
f 264/296/182 81/219/182 82/217/182 266/217/182
f 266/217/183 82/217/183 80/216/183 265/297/183
f 92/276/184 277/298/184 278/277/184 94/277/184
f 94/277/185 278/277/185 276/299/185 93/279/185
f 273/300/186 90/269/186 91/267/186 275/267/186
f 275/267/187 91/267/187 89/266/187 274/301/187
f 77/215/188 262/302/188 263/212/188 79/212/188
f 79/211/189 263/211/189 261/303/189 78/208/189
f 282/304/190 99/221/190 100/224/190 284/224/190
f 284/224/191 100/224/191 98/225/191 283/305/191
f 86/256/192 271/306/192 272/257/192 88/257/192
f 88/257/193 272/257/193 270/307/193 87/259/193
f 95/286/194 280/308/194 281/287/194 97/287/194
f 97/287/195 281/287/195 279/309/195 96/289/195
f 77/215/50 81/219/50 264/296/50 262/302/50
f 98/225/196 221/171/196 106/209/196 78/208/196
f 77/215/197 105/214/197 126/220/197 81/219/197
f 98/225/48 78/208/48 261/303/48 283/305/48
f 80/216/33 84/249/33 267/295/33 265/297/33
f 80/216/198 125/98/198 142/250/198 84/249/198
f 83/246/51 87/259/51 270/307/51 268/294/51
f 83/246/199 141/111/199 158/260/199 87/259/199
f 86/256/47 90/269/47 273/300/47 271/306/47
f 86/256/200 157/123/200 174/270/200 90/269/200
f 89/266/46 93/279/46 276/299/46 274/301/46
f 89/266/201 173/135/201 190/280/201 93/279/201
f 92/276/34 96/289/34 279/309/34 277/298/34
f 92/276/202 189/147/202 206/290/202 96/289/202
f 95/286/49 99/221/49 282/304/49 280/308/49
f 95/286/203 205/159/203 222/222/203 99/221/203
f 226/232/48 213/165/48 114/226/48 101/83/48
f 102/228/50 113/227/50 118/230/50 129/102/50
f 218/293/21 229/178/21 234/237/21 109/88/21
f 110/234/22 233/233/22 238/240/22 121/95/22
f 130/229/33 117/92/33 134/245/33 145/114/33
f 122/238/23 237/184/23 242/243/23 137/108/23
f 146/244/51 133/105/51 150/255/51 161/126/51
f 138/241/24 241/188/24 246/253/24 153/120/24
f 162/254/47 149/117/47 166/265/47 177/138/47
f 154/251/25 245/192/25 250/263/25 169/132/25
f 178/264/46 165/129/46 182/275/46 193/150/46
f 170/261/26 249/196/26 254/273/26 185/144/26
f 194/274/34 181/141/34 198/285/34 209/162/34
f 186/271/27 253/200/27 258/283/27 201/156/27
f 210/284/49 197/153/49 214/231/49 225/175/49
f 202/281/28 257/204/28 230/291/28 217/168/28
f 235/47/220 234/237/220 229/178/220 231/180/220 49/44/220 50/47/220
f 231/180/221 230/291/221 257/204/221 259/206/221 56/61/221 49/44/221
f 239/186/222 238/240/222 233/233/222 235/310/222 50/48/222 51/51/222
f 243/190/223 242/243/223 237/184/223 239/186/223 51/51/223 52/53/223
f 247/194/224 246/253/224 241/188/224 243/190/224 52/53/224 53/55/224
f 251/198/225 250/263/225 245/192/225 247/194/225 53/55/225 54/57/225
f 255/202/226 254/273/226 249/196/226 251/198/226 54/57/226 55/59/226
f 259/206/227 258/283/227 253/200/227 255/202/227 55/59/227 56/61/227
f 261/311/228 263/312/228 262/313/228 264/314/228 266/315/228 265/316/228 267/317/228 269/318/228 268/319/228 270/320/228 272/321/228 271/322/228 273/323/228 275/324/228 274/325/228 276/326/228 278/327/228 277/328/228 279/329/228 281/330/228 280/331/228 282/332/228 284/333/228 283/334/228
